<svg viewBox="0 0 100 70" fill="none" xmlns="http://www.w3.org/2000/svg">
  <path d="M82 55H22C14.3 55 8 48.7 8 41c0-6.8 4.8-12.5 11.2-13.8C21.5 19 29.5 13 39 13c6.2 0 11.8 2.6 15.8 6.8C57 17.5 60.5 16 64.5 16c8 0 14.5 6.5 14.5 14.5 0 .3 0 .7-.05 1C84.5 33 89 38 89 44c0 6.1-3.1 11-7 11z" 
        fill="currentColor"/>
  <ellipse cx="25" cy="43" rx="13" ry="13" fill="currentColor"/>
  <ellipse cx="42" cy="36" rx="17" ry="17" fill="currentColor"/>
  <ellipse cx="63" cy="39" rx="15" ry="15" fill="currentColor"/>
  <ellipse cx="78" cy="46" rx="11" ry="11" fill="currentColor"/>
  <rect x="12" y="48" width="70" height="10" rx="5" fill="currentColor"/>
</svg>
